<?xml version="1.0" standalone="no"?>
<!DOCTYPE svg PUBLIC "-//W3C//DTD SVG 20010904//EN"
 "http://www.w3.org/TR/2001/REC-SVG-20010904/DTD/svg10.dtd">
<svg version="1.0" xmlns="http://www.w3.org/2000/svg"
 width="500.000000pt" height="500.000000pt" viewBox="0 0 500.000000 500.000000"
 preserveAspectRatio="xMidYMid meet">

<g transform="translate(0.000000,500.000000) scale(0.100000,-0.100000)"
fill="#000000" stroke="none">
<path d="M2088 4905 c-55 -18 -88 -55 -88 -99 l0 -32 -232 3 c-130 2 -270 -1
-316 -7 -216 -28 -467 -117 -580 -206 -35 -27 -74 -54 -86 -61 -42 -23 -212
-208 -283 -308 -70 -99 -103 -157 -118 -205 -4 -14 -21 -54 -37 -88 -78 -172
-132 -470 -129 -717 1 -60 6 -227 12 -370 18 -459 20 -619 10 -685 -5 -36 -13
-155 -17 -265 l-6 -200 175 175 c97 96 180 176 185 178 5 1 12 -37 15 -87 4
-49 11 -101 17 -117 11 -28 28 -88 76 -264 24 -89 62 -186 84 -220 6 -8 18
-31 28 -50 9 -20 23 -42 30 -50 8 -8 26 -36 40 -62 37 -66 143 -216 184 -259
79 -86 297 -244 418 -305 30 -15 96 -50 145 -77 110 -61 153 -76 370 -132 197
-50 261 -63 365 -70 41 -3 104 -10 139 -16 67 -10 416 -13 432 -4 5 4 6 -2 3
-12 -5 -14 -4 -15 4 -4 8 11 55 14 223 16 186 3 227 0 314 -18 131 -28 229
-26 262 5 34 32 59 77 67 118 4 23 32 65 82 125 41 50 79 90 84 90 14 0 84 85
132 160 14 22 36 51 48 65 37 42 159 255 202 353 22 50 56 137 74 191 19 55
40 106 47 115 8 9 19 30 25 46 6 17 28 73 48 125 65 169 84 257 95 455 9 161
18 272 35 417 4 28 0 68 -9 100 -8 29 -18 80 -22 113 -6 57 -30 128 -61 187
-8 14 -14 35 -14 46 0 26 -103 226 -162 317 -26 39 -63 86 -83 105 -20 19 -40
42 -44 52 -20 51 -214 217 -352 300 -30 18 -68 42 -84 54 -48 34 -204 105
-270 124 -34 10 -75 25 -93 34 -17 9 -34 16 -37 16 -15 -3 -124 24 -147 36
-15 8 -56 16 -91 18 -36 2 -75 10 -88 16 -16 9 -103 13 -306 14 -234 1 -286 4
-297 16 -23 23 -103 189 -120 249 -9 30 -25 74 -37 97 -14 30 -23 76 -29 156
-8 110 -22 161 -67 249 -10 20 -25 42 -34 47 -30 19 -83 22 -131 7z m-523
-339 c-16 -14 -50 -30 -73 -37 -24 -7 -46 -18 -49 -26 -3 -7 -14 -13 -25 -13
-21 0 -78 -30 -78 -41 0 -4 -30 -21 -67 -39 -39 -18 -91 -53 -122 -83 -142
-137 -211 -208 -211 -219 0 -6 -29 -54 -64 -108 -81 -123 -96 -152 -96 -189 0
-16 -4 -32 -9 -36 -5 -3 -21 -42 -36 -88 -15 -45 -30 -91 -35 -102 -10 -21
-53 -202 -77 -325 -9 -41 -19 -83 -24 -92 -5 -10 -9 -38 -9 -62 0 -49 -15
-136 -32 -178 -5 -15 -13 -60 -16 -100 -6 -64 -10 -74 -32 -85 -20 -10 -21
-13 -6 -13 15 0 17 -5 11 -27 -4 -16 -8 -32 -9 -38 -1 -5 -5 -15 -9 -22 -4 -6
-5 -18 -1 -26 4 -11 -1 -13 -21 -9 -15 2 -29 11 -32 18 -3 8 -8 12 -12 10 -4
-3 -8 3 -8 12 -1 9 -7 64 -14 122 -15 132 -20 292 -9 305 4 6 5 57 0 115 -8
121 -4 220 10 234 6 6 10 27 10 47 0 21 5 50 12 66 13 30 18 54 21 93 1 14 6
31 10 37 5 7 10 21 12 30 9 37 32 94 43 105 7 7 12 18 12 25 0 18 81 187 91
191 5 2 9 10 9 17 0 7 4 15 9 17 6 2 23 28 39 58 16 30 42 62 57 70 15 8 35
31 44 50 9 19 25 36 35 38 19 4 66 48 66 63 0 4 10 11 23 14 12 4 36 20 52 35
26 24 159 90 181 90 4 0 15 6 23 14 9 7 43 23 76 36 33 12 69 26 80 31 22 9
138 28 200 33 22 1 49 3 60 4 17 2 15 -2 -10 -22z m563 -128 c0 -7 3 -57 5
-110 2 -54 7 -101 10 -105 13 -12 7 -30 -23 -63 -16 -18 -30 -41 -30 -49 0 -9
-14 -29 -31 -45 -22 -21 -33 -26 -41 -18 -9 9 -16 8 -28 -3 -9 -8 -27 -16 -39
-18 -13 -2 -29 -11 -36 -20 -7 -9 -22 -17 -34 -17 -12 0 -33 -12 -46 -26 -14
-15 -25 -22 -25 -15 0 6 -7 11 -15 11 -8 0 -15 -6 -15 -13 0 -14 -65 -47 -92
-47 -18 0 -32 27 -18 35 5 3 6 13 3 22 -4 11 -3 14 5 9 7 -4 12 -1 12 8 0 9 9
21 20 28 11 7 20 19 20 26 0 7 11 25 25 40 13 15 40 44 60 65 19 22 33 43 30
47 -3 5 3 14 14 19 11 6 23 20 26 31 3 11 11 20 16 20 5 0 28 21 51 46 48 52
58 63 116 117 43 39 58 45 60 25z m-349 -15 c-15 -18 -57 -67 -99 -115 -46
-52 -50 -57 -81 -110 -17 -29 -47 -75 -65 -101 -19 -26 -32 -52 -29 -57 4 -6
1 -10 -5 -10 -6 0 -16 -13 -21 -30 -6 -16 -14 -30 -18 -30 -4 0 -15 -24 -26
-52 -10 -29 -30 -75 -44 -102 -59 -111 -67 -130 -63 -151 2 -14 -3 -28 -15
-36 -11 -8 -22 -23 -26 -34 -23 -76 -48 -138 -62 -151 -13 -13 -20 -42 -16
-67 1 -9 -29 -70 -39 -77 -4 -3 -22 -38 -40 -77 -18 -40 -36 -73 -40 -73 -4 0
-13 -21 -20 -47 -7 -27 -21 -56 -32 -65 -10 -9 -26 -37 -34 -62 -9 -25 -20
-46 -24 -46 -5 0 -12 -9 -15 -20 -3 -11 -26 -55 -49 -98 -24 -42 -48 -93 -55
-113 -6 -19 -24 -45 -40 -57 -16 -12 -31 -32 -33 -44 -2 -13 -13 -27 -25 -33
-12 -5 -28 -21 -35 -35 -7 -14 -25 -40 -40 -57 -15 -18 -30 -48 -34 -68 -3
-19 -10 -35 -14 -35 -5 0 -16 -7 -24 -16 -15 -14 -16 -13 -16 13 0 17 10 38
26 53 15 13 21 26 15 28 -19 6 -8 73 34 202 8 25 16 76 19 114 3 47 10 72 20
78 10 6 13 20 10 52 -3 30 0 47 11 56 11 9 12 17 5 31 -8 13 -5 34 10 76 11
31 20 66 20 78 0 11 12 53 25 94 13 40 22 77 20 81 -7 11 15 123 25 134 5 5 6
14 4 20 -3 7 9 51 26 98 16 47 31 94 33 105 1 10 13 33 25 50 12 17 20 37 17
45 -3 8 8 34 25 59 16 24 30 49 30 54 0 11 11 27 56 84 12 14 32 45 44 69 12
23 26 42 32 42 13 0 87 82 88 97 0 6 16 21 35 33 19 12 35 29 35 37 0 9 3 14
6 10 10 -9 62 20 73 42 6 10 36 26 68 36 32 9 75 28 96 41 20 13 37 22 37 20
0 -3 16 2 36 10 20 8 51 17 69 19 17 3 43 9 56 14 13 5 32 10 43 10 16 1 17
-1 5 -16z m748 -564 c353 -48 793 -344 1020 -686 93 -141 220 -391 257 -508
34 -105 74 -303 86 -424 6 -53 15 -141 22 -196 28 -238 1 -533 -84 -905 -16
-74 -36 -146 -43 -160 -7 -14 -22 -63 -34 -109 -11 -46 -25 -89 -31 -96 -6 -7
-17 -37 -26 -66 -9 -30 -29 -83 -44 -119 -16 -36 -31 -82 -35 -103 -4 -20 -10
-39 -14 -41 -3 -3 -42 4 -86 15 -122 29 -252 39 -507 38 -128 0 -242 -1 -253
-1 -11 0 -77 0 -147 2 l-126 2 1 25 c1 18 -4 27 -17 29 -14 2 -16 0 -7 -9 24
-24 13 -38 -26 -32 -21 3 -90 13 -153 21 -457 60 -744 196 -1064 506 -56 54
-103 98 -106 98 -12 0 -83 80 -78 86 4 3 0 13 -8 22 -8 10 -41 71 -73 138 -58
120 -58 120 -33 122 22 2 23 0 11 -16 -7 -9 -10 -14 -5 -10 5 4 17 3 26 -2 13
-7 21 -5 30 5 10 13 9 15 -11 16 -22 0 -23 1 -4 9 11 5 14 9 8 9 -18 1 -16 21
2 21 8 0 19 -9 25 -20 6 -11 17 -20 25 -20 8 0 21 -10 29 -22 11 -16 16 -18
17 -8 2 32 19 -48 22 -102 2 -42 0 -55 -8 -48 -7 6 -15 7 -18 3 -4 -3 -7 2 -8
13 0 10 -3 14 -5 7 -3 -7 0 -21 6 -32 9 -18 8 -21 -12 -18 -16 1 -23 -3 -23
-17 0 -11 7 -21 15 -23 9 -3 11 -1 5 4 -12 10 -18 33 -8 33 14 0 35 -17 33
-26 -1 -5 4 -10 12 -12 8 -2 9 0 3 5 -5 4 -11 20 -12 35 -1 22 1 25 11 15 8
-6 12 -17 9 -23 -2 -6 3 -17 12 -24 8 -7 15 -21 15 -32 0 -10 5 -16 10 -13 6
4 8 11 5 16 -4 5 -1 9 5 9 6 0 10 -8 8 -17 -3 -21 31 -75 42 -68 5 3 11 1 15
-5 9 -15 45 -12 45 4 0 8 -9 12 -25 11 -14 -2 -23 1 -19 6 3 5 0 9 -5 9 -6 0
-11 -5 -11 -12 0 -6 -7 -3 -15 8 -14 18 -22 74 -9 61 11 -10 36 22 30 38 -7
18 1 19 17 3 13 -14 17 -79 5 -72 -4 2 -9 0 -13 -6 -3 -5 1 -10 10 -10 10 0
13 -5 9 -12 -5 -8 -2 -9 12 -4 10 5 24 9 31 9 7 0 10 4 7 9 -4 5 -12 7 -20 4
-16 -6 -16 -6 -18 47 -1 28 3 42 16 52 16 11 17 13 3 18 -10 4 -15 0 -16 -11
0 -14 -2 -14 -6 -2 -3 8 -14 24 -24 36 -15 16 -17 26 -10 52 6 20 6 32 0 32
-5 0 -9 -12 -9 -26 0 -16 -4 -23 -12 -18 -8 5 -9 0 -6 -14 4 -13 1 -22 -5 -22
-7 0 -3 -8 9 -18 20 -16 20 -18 3 -34 -19 -18 -29 -14 -29 12 0 10 -7 23 -16
30 -8 8 -20 23 -26 34 -10 18 -9 19 4 8 13 -10 17 -10 22 3 3 9 13 15 22 13
12 -2 17 5 20 25 2 24 0 26 -11 17 -8 -7 -13 -16 -10 -20 7 -11 -39 -7 -47 4
-8 12 2 37 12 31 5 -3 11 -1 15 5 3 5 -3 10 -14 10 -10 0 -22 -6 -24 -12 -3
-7 -4 2 -2 21 2 19 8 38 14 44 12 12 34 -1 25 -15 -4 -6 -10 -5 -15 3 -6 10
-9 9 -9 -7 0 -18 5 -20 28 -16 15 2 33 9 39 14 7 6 20 8 28 4 17 -6 21 -36 5
-36 -5 0 -10 -7 -10 -15 0 -18 11 -19 45 -3 14 6 25 17 25 25 0 11 -4 11 -21
2 -20 -10 -21 -9 -16 10 3 11 1 24 -5 27 -6 4 -5 10 3 15 10 6 6 11 -15 18
-21 9 -31 8 -43 -4 -17 -18 -37 -10 -29 12 4 9 0 14 -12 12 -9 -1 -21 0 -27 1
-24 6 -31 8 -52 15 -13 4 -23 12 -23 17 0 6 7 8 15 4 8 -3 15 -1 15 4 0 6 -9
10 -19 10 -21 0 -73 39 -53 40 10 0 10 3 -2 15 -17 18 -30 20 -20 3 5 -7 3 -8
-5 -4 -7 5 -10 14 -7 21 3 9 -5 12 -27 10 -23 -2 -33 -8 -34 -21 -3 -17 -2
-17 6 1 5 11 10 14 10 7 1 -7 5 -11 10 -8 5 3 15 -2 22 -12 13 -16 13 -16 -5
-2 -18 14 -19 13 -13 -2 9 -24 -5 -23 -39 4 -15 13 -25 18 -22 13 3 -6 0 -16
-8 -23 -12 -11 -14 -9 -14 8 0 27 3 36 13 32 11 -3 9 16 -3 23 -5 3 -10 1 -10
-6 0 -34 -21 15 -46 106 -26 92 -28 114 -27 277 l0 177 55 63 c136 159 317
455 379 623 12 33 60 133 105 222 46 89 90 185 98 214 9 28 29 73 45 98 16 25
47 89 70 141 23 52 45 100 49 106 25 36 207 92 387 119 111 16 466 19 572 4z
m783 -45 c41 -9 97 -28 125 -41 27 -13 55 -21 62 -19 6 3 17 -2 23 -10 7 -8
17 -14 23 -14 5 0 28 -9 51 -19 175 -82 219 -107 281 -156 39 -32 79 -61 90
-67 11 -6 34 -23 50 -39 17 -15 63 -58 103 -95 39 -37 72 -74 72 -82 0 -8 19
-33 43 -56 47 -46 81 -93 83 -116 1 -9 13 -35 28 -58 14 -23 26 -46 26 -52 0
-6 8 -27 19 -48 10 -20 16 -42 14 -48 -2 -6 9 -37 23 -70 15 -32 26 -72 25
-88 -1 -16 6 -54 15 -85 11 -38 17 -107 20 -216 2 -88 5 -173 8 -188 2 -16 -3
-50 -11 -75 -8 -26 -16 -73 -17 -104 -2 -36 -9 -63 -20 -73 -9 -9 -16 -31 -16
-49 0 -19 -7 -50 -16 -71 -8 -20 -16 -60 -16 -89 -1 -28 -9 -67 -19 -86 -24
-48 -35 -77 -49 -130 -25 -96 -41 -128 -61 -123 -15 4 -22 -2 -30 -26 -6 -17
-15 -31 -20 -31 -5 0 -9 -13 -9 -29 0 -16 -7 -34 -15 -41 -8 -6 -28 -40 -45
-75 -17 -35 -38 -69 -46 -76 -9 -7 -25 -31 -36 -53 -21 -40 -21 -40 -30 -16
-6 17 -5 33 4 50 7 14 13 41 14 60 2 40 10 84 24 120 5 14 11 54 14 90 2 36
11 97 19 135 10 50 13 125 11 260 -3 246 -14 476 -22 489 -6 11 -11 39 -16 96
-1 19 -8 60 -14 90 -6 30 -18 89 -27 131 -9 41 -24 92 -35 112 -11 20 -20 48
-20 62 0 30 -44 132 -69 160 -10 11 -24 37 -30 57 -7 20 -20 47 -30 60 -10 13
-21 35 -24 49 -4 15 -20 41 -37 59 -17 18 -51 70 -76 116 -25 45 -60 96 -79
113 -19 17 -35 33 -35 37 0 4 -25 35 -56 68 -31 34 -68 74 -83 90 -14 16 -83
71 -154 123 -113 84 -148 123 -99 109 10 -2 51 -12 92 -22z m-2860 -1220 c0
-8 -5 -14 -12 -14 -6 0 -1 -11 13 -26 17 -18 19 -23 6 -18 -9 3 -17 11 -17 18
0 6 -4 5 -9 -3 -8 -13 -9 23 -2 62 2 14 21 -3 21 -19z m44 -16 c-3 -4 -11 -5
-19 -1 -21 7 -19 12 4 10 11 0 18 -5 15 -9z m-31 -81 c-3 -5 -9 -3 -14 4 -6
10 -9 8 -9 -8 0 -15 6 -23 18 -24 13 -1 14 -2 2 -5 -12 -4 -14 -15 -12 -44 2
-22 1 -40 -2 -40 -15 0 -25 52 -19 99 5 45 7 48 24 38 10 -6 15 -15 12 -20z
m427 -863 c0 -8 -19 -13 -24 -6 -3 5 1 9 9 9 8 0 15 -2 15 -3z m43 -31 c-5
-12 -3 -14 7 -8 9 5 11 4 6 -4 -6 -9 -11 -9 -22 0 -12 10 -12 14 -2 20 18 12
18 11 11 -8z m-49 -3 c14 -5 26 -15 26 -21 0 -8 -4 -9 -13 0 -8 6 -16 9 -19 6
-3 -3 -11 1 -18 10 -15 18 -11 19 24 5z m136 -11 c0 -5 -4 -7 -10 -4 -5 3 -10
2 -10 -4 0 -6 10 -15 21 -22 15 -8 19 -8 15 0 -4 6 0 11 9 11 8 0 18 -6 21
-14 3 -8 13 -12 22 -10 15 5 15 4 0 -6 -20 -12 -25 -35 -5 -24 7 5 6 1 -3 -10
-11 -14 -15 -15 -19 -5 -6 20 -25 36 -36 32 -6 -1 -16 9 -22 24 -17 35 -16 43
2 43 8 0 15 -5 15 -11z m-70 -51 c0 -6 -6 -6 -14 1 -7 6 -22 8 -32 5 -17 -6
-17 -5 1 9 20 15 45 7 45 -15z"/>
<path d="M575 3270 c3 -5 8 -10 11 -10 2 0 4 5 4 10 0 6 -5 10 -11 10 -5 0 -7
-4 -4 -10z"/>
<path d="M556 3147 c3 -10 9 -15 12 -12 3 3 0 11 -7 18 -10 9 -11 8 -5 -6z"/>
<path d="M430 2897 c0 -15 27 -43 34 -36 3 2 -4 15 -15 28 -13 16 -19 18 -19
8z"/>
<path d="M495 2790 c3 -5 8 -10 11 -10 2 0 4 5 4 10 0 6 -5 10 -11 10 -5 0 -7
-4 -4 -10z"/>
<path d="M480 2770 c0 -5 -6 -10 -14 -10 -7 0 -16 -10 -19 -22 -3 -13 -9 -34
-13 -47 -5 -17 -4 -22 4 -17 8 5 12 0 12 -12 0 -28 26 -48 34 -26 9 23 8 27
-9 20 -8 -3 -15 -1 -15 4 0 6 9 10 21 10 11 0 17 4 14 10 -4 6 -2 17 4 24 9
10 8 15 -4 20 -8 3 -15 13 -15 21 0 9 4 13 10 10 6 -3 7 1 4 9 -7 18 -14 21
-14 6z"/>
<path d="M1291 1477 c-8 -10 -7 -14 2 -14 8 0 14 6 14 14 0 7 -1 13 -2 13 -2
0 -8 -6 -14 -13z"/>
<path d="M987 1450 c-3 -11 -10 -20 -16 -20 -6 0 -8 7 -5 15 4 11 -1 15 -17
15 -21 0 -20 -2 12 -30 23 -21 35 -27 38 -18 2 7 8 18 12 24 6 7 4 16 -5 23
-11 9 -15 7 -19 -9z"/>
<path d="M1146 1443 c-6 -14 -5 -15 5 -6 7 7 10 15 7 18 -3 3 -9 -2 -12 -12z"/>
<path d="M1263 1443 c-7 -2 -13 -9 -13 -14 0 -6 6 -7 13 -3 7 5 6 0 -3 -11
-14 -17 -13 -18 5 -11 11 5 28 8 38 8 13 -1 17 4 13 14 -3 9 -6 18 -6 20 0 5
-32 4 -47 -3z"/>
<path d="M1210 1390 c0 -5 5 -10 11 -10 5 0 7 5 4 10 -3 6 -8 10 -11 10 -2 0
-4 -4 -4 -10z"/>
<path d="M1137 1365 c-4 -8 -1 -17 5 -21 7 -4 8 -3 4 4 -4 7 -2 12 3 12 6 0
11 5 11 10 0 15 -17 12 -23 -5z"/>
<path d="M1038 1363 c7 -3 16 -2 19 1 4 3 -2 6 -13 5 -11 0 -14 -3 -6 -6z"/>
<path d="M1240 1336 c0 -2 9 -6 20 -9 11 -3 18 -1 14 4 -5 9 -34 13 -34 5z"/>
<path d="M1285 1310 c-3 -5 1 -10 9 -10 9 0 16 5 16 10 0 6 -4 10 -9 10 -6 0
-13 -4 -16 -10z"/>
<path d="M1056 1224 c-5 -14 -4 -15 9 -4 17 14 19 20 6 20 -5 0 -12 -7 -15
-16z"/>
<path d="M1220 1111 c0 -11 29 -35 35 -29 2 2 -4 12 -15 21 -11 9 -20 13 -20
8z"/>
<path d="M1623 1093 c-7 -3 -13 -11 -13 -19 0 -9 -4 -12 -10 -9 -5 3 -10 0
-11 -7 0 -7 -2 -23 -5 -34 -3 -17 4 -25 26 -34 16 -7 37 -10 45 -6 9 3 14 2
11 -3 -3 -4 13 -18 34 -30 22 -12 41 -26 41 -32 1 -5 3 -13 4 -19 1 -5 3 -13
4 -17 1 -5 6 0 12 10 5 9 17 17 24 17 17 0 20 -16 5 -23 -6 -3 -5 -4 2 -3 7 2
27 -5 43 -14 40 -22 85 -33 85 -20 0 5 -10 12 -23 15 -13 4 -24 13 -24 21 0 9
6 13 14 9 10 -3 13 2 11 17 -3 22 -42 36 -53 18 -3 -6 -12 -10 -18 -10 -7 1
-1 10 12 20 13 11 18 20 13 20 -6 0 -14 -4 -17 -10 -10 -17 -24 -11 -20 8 2
11 -3 19 -11 19 -11 0 -11 -3 -1 -16 10 -12 9 -14 -5 -8 -11 4 -21 0 -27 -11
-10 -16 -10 -15 -11 2 0 16 -2 17 -17 5 -14 -12 -16 -12 -8 0 6 11 4 13 -8 8
-14 -5 -16 -2 -10 21 3 14 6 32 6 39 0 7 4 10 9 7 4 -3 5 -17 2 -31 -5 -17 -3
-24 4 -19 6 3 13 2 17 -4 10 -17 25 -11 25 10 0 11 -6 20 -12 20 -9 0 -8 3 2
10 12 7 11 10 -5 16 -11 4 -26 15 -32 23 -10 13 -14 14 -22 2 -7 -11 -14 -10
-37 5 -15 11 -25 14 -21 7 4 -6 4 -14 -1 -17 -4 -2 -9 7 -10 21 -2 31 -3 32
-19 26z m80 -108 c-3 -9 -8 -14 -10 -11 -3 3 -2 9 2 15 9 16 15 13 8 -4z"/>
<path d="M1560 1055 c0 -11 -5 -12 -26 -5 -18 7 -31 6 -45 -3 -10 -8 -16 -16
-14 -19 3 -3 -5 -3 -18 -1 -16 3 -26 -1 -30 -11 -5 -12 0 -16 19 -16 23 0 24
-2 13 -22 -11 -21 -11 -22 4 -9 10 7 17 21 17 30 0 14 2 14 10 1 5 -8 10 -11
10 -6 0 6 7 1 15 -10 13 -17 14 -18 15 -1 0 10 -7 20 -15 23 -8 4 -15 16 -14
28 l0 21 9 -21 c12 -31 26 -37 52 -23 13 7 18 14 12 16 -7 2 -10 13 -7 23 3
11 3 20 -1 20 -3 0 -6 -7 -6 -15z m-15 -25 c3 -5 1 -10 -4 -10 -6 0 -11 5 -11
10 0 6 2 10 4 10 3 0 8 -4 11 -10z"/>
<path d="M1768 1043 c7 -3 16 -2 19 1 4 3 -2 6 -13 5 -11 0 -14 -3 -6 -6z"/>
<path d="M1787 1016 c-3 -8 0 -17 7 -19 10 -4 12 1 9 14 -6 23 -9 24 -16 5z"/>
<path d="M1880 965 c-8 -9 -5 -12 12 -11 13 1 28 -2 35 -7 8 -6 11 -3 10 11
-1 22 -40 27 -57 7z"/>
<path d="M1475 960 c-3 -5 1 -10 10 -10 9 0 13 5 10 10 -3 6 -8 10 -10 10 -2
0 -7 -4 -10 -10z"/>
<path d="M1971 914 c-9 -11 -16 -13 -24 -5 -6 6 -18 11 -26 11 -13 0 -13 -2
-3 -9 8 -4 13 -12 12 -17 -1 -4 7 -11 17 -15 17 -7 17 -8 1 -8 -10 -1 -18 -6
-18 -12 0 -7 9 -9 21 -6 12 3 19 1 17 -5 -2 -6 -15 -13 -28 -15 -42 -6 -41
-18 1 -17 22 1 46 7 54 14 11 9 15 10 15 1 0 -7 5 -9 10 -6 6 4 9 1 8 -5 -2
-7 5 -14 14 -15 22 -4 33 26 13 37 -8 5 -15 15 -15 22 0 8 -7 19 -15 26 -8 7
-12 17 -8 23 3 6 1 7 -5 3 -7 -4 -12 -2 -12 3 0 15 -13 13 -29 -5z m42 -28 c4
-10 1 -13 -9 -9 -7 3 -14 9 -14 14 0 14 17 10 23 -5z"/>
<path d="M2236 866 c26 -20 14 -28 -24 -17 -19 6 -34 6 -37 0 -4 -5 -15 -9
-27 -9 -16 0 -19 -5 -16 -25 5 -22 3 -23 -16 -14 -20 10 -20 10 -2 -5 11 -9
24 -16 29 -16 4 0 6 -4 3 -8 -3 -5 1 -9 9 -9 10 0 11 5 4 18 -8 16 -6 17 21 9
39 -11 39 5 0 19 -16 5 -30 13 -30 17 0 3 6 4 14 1 8 -3 16 -1 18 5 3 7 14 9
30 5 22 -6 26 -12 25 -35 -1 -15 3 -29 8 -30 6 -2 18 -8 29 -14 10 -5 16 -6
13 -1 -10 16 7 33 23 23 10 -7 11 -10 3 -10 -7 0 -13 -8 -13 -18 0 -10 6 -19
13 -20 6 -1 28 -3 47 -5 33 -4 49 6 50 27 0 6 -7 1 -15 -10 -8 -10 -15 -14
-14 -9 3 23 -2 27 -18 14 -11 -10 -14 -10 -9 -1 4 6 2 12 -3 12 -6 0 -11 -4
-11 -10 0 -5 -4 -10 -10 -10 -5 0 0 17 12 38 14 23 17 33 7 25 -8 -7 -33 -11
-54 -10 -36 3 -40 6 -39 27 1 14 5 33 9 43 6 14 2 17 -21 17 -26 0 -27 -1 -8
-14z"/>
<path d="M1756 855 c4 -8 8 -15 10 -15 2 0 4 7 4 15 0 8 -4 15 -10 15 -5 0 -7
-7 -4 -15z"/>
<path d="M2050 860 c0 -5 5 -10 11 -10 5 0 7 5 4 10 -3 6 -8 10 -11 10 -2 0
-4 -4 -4 -10z"/>
<path d="M2333 845 c0 -8 4 -15 9 -15 4 0 8 4 8 9 0 6 -4 12 -8 15 -5 3 -9 -1
-9 -9z"/>
<path d="M2369 812 c5 -10 24 -30 43 -45 25 -22 30 -30 19 -36 -7 -5 -10 -14
-7 -20 4 -6 13 -8 19 -4 7 4 17 8 22 9 6 0 16 2 23 2 10 2 10 5 0 16 -7 7 -18
11 -25 9 -6 -3 -18 8 -27 24 -18 36 -51 66 -40 38 5 -13 4 -16 -4 -11 -7 4
-12 14 -12 22 0 8 -5 14 -10 14 -7 0 -7 -6 -1 -18z"/>
<path d="M1926 802 c-3 -6 -1 -14 5 -17 15 -10 25 3 12 16 -7 7 -13 7 -17 1z"/>
<path d="M2466 791 c-9 -9 -13 -21 -9 -24 12 -12 23 -7 17 7 -3 9 2 16 13 18
11 2 14 6 7 10 -6 4 -19 -1 -28 -11z"/>
<path d="M1976 775 c-3 -8 -1 -15 4 -15 6 0 10 7 10 15 0 8 -2 15 -4 15 -2 0
-6 -7 -10 -15z"/>
<path d="M2078 783 c6 -2 12 -11 12 -19 0 -9 5 -12 12 -8 8 5 9 2 5 -9 -5 -13
-1 -17 16 -17 13 0 27 -4 33 -8 5 -5 20 -6 34 -1 23 6 23 7 3 8 -12 1 -25 6
-28 11 -4 6 -11 8 -16 5 -5 -4 -20 5 -34 19 -14 15 -31 26 -38 25 -9 0 -9 -2
1 -6z"/>
<path d="M2525 780 c-3 -6 1 -7 9 -4 18 7 21 14 7 14 -6 0 -13 -4 -16 -10z"/>
<path d="M2560 770 c0 -5 5 -10 11 -10 5 0 7 5 4 10 -3 6 -8 10 -11 10 -2 0
-4 -4 -4 -10z"/>
<path d="M2071 754 c0 -11 3 -14 6 -6 3 7 2 16 -1 19 -3 4 -6 -2 -5 -13z"/>
<path d="M2605 759 c-4 -6 -4 -13 -1 -16 3 -4 6 0 6 7 0 9 7 7 23 -6 l22 -19
-19 23 c-22 25 -23 26 -31 11z"/>
<path d="M2495 750 c-8 -13 5 -13 25 0 13 8 13 10 -2 10 -9 0 -20 -4 -23 -10z"/>
<path d="M2662 735 c4 -4 0 -14 -10 -21 -15 -12 -15 -12 6 -7 24 6 29 18 10
29 -7 4 -10 4 -6 -1z"/>
<path d="M2585 721 c-3 -5 -2 -12 3 -15 5 -3 9 1 9 9 0 17 -3 19 -12 6z"/>
<path d="M1950 710 c0 -5 5 -10 11 -10 5 0 7 5 4 10 -3 6 -8 10 -11 10 -2 0
-4 -4 -4 -10z"/>
<path d="M2502 699 c-10 -16 -9 -16 19 -2 34 17 37 22 10 20 -10 0 -23 -9 -29
-18z"/>
<path d="M2710 709 c0 -5 -4 -8 -9 -4 -6 3 -6 -6 -1 -24 4 -16 6 -32 2 -35 -3
-3 -1 -6 5 -6 6 0 13 9 16 21 5 17 9 19 26 10 14 -8 22 -8 27 1 4 6 3 8 -2 5
-6 -3 -16 -2 -24 3 -9 5 -19 5 -27 -2 -16 -13 -17 -4 -3 23 7 13 7 19 0 19 -5
0 -10 -5 -10 -11z"/>
<path d="M2335 700 c3 -5 8 -10 11 -10 2 0 4 5 4 10 0 6 -5 10 -11 10 -5 0 -7
-4 -4 -10z"/>
<path d="M2311 674 c18 -41 27 -50 22 -20 -3 14 -12 31 -20 37 -12 11 -12 8
-2 -17z"/>
<path d="M2400 684 c0 -8 -4 -12 -10 -9 -6 3 -7 -1 -4 -9 5 -12 0 -16 -17 -16
l-24 0 25 -13 c22 -11 25 -11 28 7 3 16 6 17 14 5 6 -10 7 -7 2 11 -6 23 -6
24 11 10 17 -14 17 -14 4 8 -16 26 -29 29 -29 6z"/>
<path d="M2270 665 c0 -8 4 -15 10 -15 5 0 7 7 4 15 -4 8 -8 15 -10 15 -2 0
-4 -7 -4 -15z"/>
<path d="M2500 665 c-19 -22 -8 -25 13 -3 9 10 13 18 8 18 -5 0 -14 -7 -21
-15z"/>
<path d="M2645 670 c3 -5 14 -10 23 -10 15 0 15 2 2 10 -20 13 -33 13 -25 0z"/>
<path d="M2449 653 c-13 -16 -12 -17 4 -4 9 7 17 15 17 17 0 8 -8 3 -21 -13z"/>
<path d="M2568 661 c-1 -6 -15 -12 -30 -13 -23 -2 -25 -5 -16 -22 10 -18 12
-18 23 -3 15 21 35 22 35 2 0 -18 36 -20 46 -3 5 8 2 9 -9 5 -11 -4 -17 -1
-17 7 0 18 -27 40 -32 27z"/>
<path d="M2676 626 c10 -8 21 -12 24 -10 5 6 -21 24 -34 24 -6 0 -1 -6 10 -14z"/>
<path d="M2430 600 c0 -16 17 -20 28 -7 8 10 6 13 -9 14 -10 1 -19 -2 -19 -7z"/>
<path d="M2480 595 c0 -8 7 -15 16 -15 8 0 12 -4 9 -10 -3 -5 -2 -10 2 -10 5
0 14 9 20 19 10 15 9 20 -2 25 -8 3 -15 1 -15 -4 0 -6 -5 -10 -11 -10 -5 0 -7
5 -4 10 3 6 1 10 -4 10 -6 0 -11 -7 -11 -15z"/>
<path d="M2400 581 c0 -25 25 -47 36 -30 4 7 3 9 -3 6 -12 -8 -26 20 -17 34 3
5 0 9 -5 9 -6 0 -11 -8 -11 -19z"/>
<path d="M2555 590 c3 -5 8 -10 11 -10 2 0 4 5 4 10 0 6 -5 10 -11 10 -5 0 -7
-4 -4 -10z"/>
<path d="M2715 591 c-6 -11 13 -26 22 -17 4 3 0 6 -8 6 -11 0 -11 2 1 10 9 6
10 10 3 10 -6 0 -14 -4 -18 -9z"/>
<path d="M2755 590 c3 -5 8 -10 11 -10 2 0 4 5 4 10 0 6 -5 10 -11 10 -5 0 -7
-4 -4 -10z"/>
<path d="M2350 570 c0 -5 5 -10 11 -10 5 0 7 5 4 10 -3 6 -8 10 -11 10 -2 0
-4 -4 -4 -10z"/>
<path d="M2658 569 c-4 -11 1 -15 17 -15 15 0 21 5 18 14 -4 10 -8 11 -13 2
-6 -9 -9 -9 -12 1 -3 10 -6 9 -10 -2z"/>
<path d="M2739 551 c11 -7 11 -9 0 -14 -8 -3 0 -6 16 -6 29 0 29 0 11 14 -11
8 -25 15 -30 15 -6 0 -5 -4 3 -9z"/>
</g>
</svg>
